<svg id="visual" viewBox="0 0 900 900" width="900" height="900" xmlns="http://www.w3.org/2000/svg" xmlns:xlink="http://www.w3.org/1999/xlink" version="1.1"><rect x="0" y="0" width="900" height="900" fill="#ffffff"></rect><defs><linearGradient id="grad1_0" x1="0%" y1="0%" x2="100%" y2="100%"><stop offset="30%" stop-color="#ffffff" stop-opacity="1"></stop><stop offset="70%" stop-color="#ffffff" stop-opacity="1"></stop></linearGradient></defs><defs><linearGradient id="grad2_0" x1="0%" y1="0%" x2="100%" y2="100%"><stop offset="30%" stop-color="#ffffff" stop-opacity="1"></stop><stop offset="70%" stop-color="#ffffff" stop-opacity="1"></stop></linearGradient></defs><g transform="translate(900, 0)"><path d="M0 343C-57.2 332.3 -114.4 321.7 -170.5 295.3C-226.6 268.9 -281.7 226.8 -303.1 175C-324.5 123.2 -312.3 61.6 -300 0L0 0Z" fill="#034C8C"></path></g><g transform="translate(0, 900)"><path d="M0 -350C63.2 -339.2 126.3 -328.4 170 -294.4C213.7 -260.5 237.9 -203.4 260.7 -150.5C283.4 -97.6 304.7 -48.8 326 0L0 0Z" fill="#034C8C"></path></g></svg>