<svg width="385" height="374" viewBox="0 0 385 374" fill="none" xmlns="http://www.w3.org/2000/svg">
<path d="M210.365 352.218C210.313 347.662 207.171 335.859 207.171 330.379C209.134 329.133 220.395 327.996 224.019 325.695C227.059 337.804 228.426 336.796 245.662 340.764C269.312 346.207 251.195 354.076 246.421 355.127C239.235 356.709 241.022 351.484 228.262 352.796C221.626 353.478 210.47 361.452 210.365 352.218Z" fill="#F1B09B"/>
<path d="M210.365 352.218C210.313 347.662 207.171 335.859 207.171 330.379C209.134 329.133 220.395 327.996 224.019 325.695C224.482 327.539 224.906 329.079 225.353 330.379C220.701 333.031 210.562 333.526 208.475 334.091C207.66 334.091 210.365 347.35 211.246 352.218C211.954 356.127 212.55 356.413 219.56 355.399C214.723 357.057 210.43 357.93 210.365 352.218Z" fill="#EC8E65"/>
<path d="M236.565 362.467C232.212 361.568 221.147 355.835 213.541 353.613C210.303 356.319 210.601 361.296 209.557 363.58C208.513 365.865 208.04 367.425 198.975 367.452C189.91 367.478 190.766 366.646 190.003 366.441C189.239 366.236 189.151 369.347 189.724 369.345C190.296 369.344 229.712 369.332 233.624 369.216C237.536 369.101 240.003 363.39 236.565 362.467Z" fill="#0F2E9A"/>
<path d="M189.994 366.449C189.23 366.244 189.142 369.355 189.715 369.353C189.92 369.353 195.146 369.351 201.936 369.343C203.11 368.82 204.273 367.632 204.708 367.103C203.321 367.328 201.472 367.452 198.966 367.46C189.901 367.486 190.757 366.654 189.994 366.449Z" fill="#092482"/>
<path d="M179.867 353.744C172.004 351.371 175.529 337.706 175.529 337.706L155.841 333.476C155.841 333.476 157.588 342.418 156.401 350.437C155.738 354.908 155.225 363.488 156.095 366.468C158.185 371.912 187.716 367.666 179.867 353.744Z" fill="#F1B09B"/>
<path d="M155.842 333.476C155.842 333.476 157.59 342.418 156.402 350.437C155.74 354.908 155.226 363.488 156.097 366.468C156.261 366.897 156.596 367.266 157.07 367.575C156.202 363.902 155.896 355.098 157.033 352.879C158.171 350.661 156.999 339.972 158.104 340.102C158.988 340.206 170.33 343.642 174.75 343.642C174.83 340.421 175.531 337.705 175.531 337.705L155.842 333.476Z" fill="#EC8E65"/>
<path d="M202.621 362.495C198.268 361.595 187.203 355.863 179.597 353.641C176.36 356.347 176.658 361.323 175.614 363.608C174.57 365.892 174.096 367.452 165.031 367.479C155.966 367.506 156.823 366.674 156.059 366.468C155.295 366.263 155.207 369.375 155.78 369.373C156.352 369.371 195.768 369.359 199.68 369.244C203.592 369.129 206.059 363.418 202.621 362.495Z" fill="#0F2E9A"/>
<path d="M290.356 59.2875C295.377 57.1482 296.932 51.7511 297.081 49.32L309.859 42.756C311.652 47.213 315.508 56.6619 316.584 58.8013C320.395 70.9569 309.635 83.1124 299.771 80.9244C289.907 78.7364 288.786 67.7964 290.356 59.2875Z" fill="#FECBB5"/>
<path d="M297.08 49.32L309.857 42.756C308.688 48.0178 303.66 58.3773 292.9 57.7207C295.926 55.1664 296.959 51.2796 297.08 49.32Z" fill="#F1A089"/>
<path d="M303.356 49.8097C287.394 58.9507 285.197 37.249 285.422 25.2555C285.667 12.1274 302.161 16.8276 311.203 20.1502C313.445 27.2814 314.321 43.53 303.356 49.8097Z" fill="#FECBB5"/>
<path d="M285.422 25.2555C285.667 12.1274 302.161 16.8276 311.203 20.1502C312.908 25.5738 313.823 36.2713 309.34 43.846C308.786 42.7962 307.812 40.1204 308.344 37.8156C309.008 34.9344 313.491 29.8477 309.672 27.5516C305.853 25.2555 307.347 29.8925 307.513 33.3138C307.513 34.5743 303.86 33.674 301.536 27.5516C300.207 24.4904 293.148 33.3138 285.553 31.6932C285.413 29.407 285.385 27.2032 285.422 25.2555Z" fill="#F1A089"/>
<path d="M279.119 25.2615C277.117 14.3841 284.815 12.0223 289.281 12.2768C290.653 8.71585 295.728 4.8828 298.998 5.26935C306.727 6.183 309.114 12.483 309.9 15.2689C319.965 21.0648 314.715 31.8776 312.565 34.7428C312.394 35.362 311.349 40.0067 310.09 43.4339C308.346 41.8521 309.071 39.9873 308.799 38.7185C308.459 37.1324 310.26 36.2411 311.488 31.7906C312.716 27.3401 308.772 25.4279 307.043 26.7641C305.313 28.1003 308.368 33.9404 306.583 33.3614C301.747 31.1597 303.116 23.3816 297.57 27.2744C289.614 32.8598 280.439 32.4359 279.119 25.2615Z" fill="#05185A"/>
<path d="M297.563 27.2729C289.607 32.8583 280.432 32.4344 279.112 25.26C278.374 21.2499 278.954 18.3972 280.205 16.4063C278.991 28.9187 291.272 28.8642 297.563 27.2729Z" fill="#312E63"/>
<path d="M326.275 354.007C334.132 351.611 330.573 337.956 330.573 337.956L350.251 333.668C350.251 333.668 348.525 342.616 349.733 350.631C350.406 355.1 350.941 363.679 350.078 366.661C348.002 372.111 318.46 367.952 326.275 354.007Z" fill="#FECBB5"/>
<path d="M350.252 333.668C350.252 333.668 348.526 342.616 349.734 350.631C350.407 355.1 350.942 363.679 350.079 366.661C349.916 367.091 349.582 367.46 349.109 367.77C349.968 364.095 350.252 355.29 349.109 353.075C347.965 350.86 348.161 344.69 347.056 344.823C346.172 344.929 336.382 342.691 331.369 343.89C331.281 340.669 330.574 337.956 330.574 337.956L350.252 333.668Z" fill="#F1A089"/>
<path d="M303.545 362.825C307.897 361.912 318.947 356.147 326.548 353.903C329.792 356.599 329.506 361.577 330.556 363.858C331.606 366.14 332.083 367.699 341.148 367.699C350.213 367.699 349.354 366.869 350.118 366.662C350.881 366.454 350.977 369.565 350.404 369.565C349.831 369.565 310.416 369.669 306.504 369.565C302.591 369.462 300.11 363.758 303.545 362.825Z" fill="#E85253"/>
<path d="M276.505 349.538C283.597 345.159 277.108 332.837 277.108 332.837L295.254 323.533C295.254 323.533 295.567 332.668 298.521 340.131C300.168 344.292 302.593 352.478 302.418 355.598C301.615 361.43 272.019 365.115 276.505 349.538Z" fill="#FECBB5"/>
<path d="M295.253 323.533C295.253 323.533 295.566 332.668 298.52 340.131C300.167 344.293 302.592 352.479 302.417 355.599C302.354 356.058 302.112 356.505 301.722 356.929C301.739 353.138 300.058 344.518 298.456 342.667C296.854 340.816 295.673 334.777 294.63 335.195C293.796 335.529 283.797 335.916 279.198 338.389C278.397 335.286 277.107 332.837 277.107 332.837L295.253 323.533Z" fill="#F1A089"/>
<path d="M256.402 364.038C260.422 362.015 269.865 353.531 276.743 349.367C280.491 351.136 281.32 356.041 282.846 357.981C284.372 359.921 285.181 361.309 293.979 358.94C302.777 356.571 301.759 355.99 302.454 355.589C303.149 355.188 303.933 358.183 303.377 358.332C302.822 358.482 264.591 368.884 260.771 369.806C256.951 370.728 253.275 365.841 256.402 364.038Z" fill="#E85253"/>
<path d="M244.287 68.2904C253.629 68.2904 252.818 77.6433 255.51 79.5357C251.71 83.1484 246.298 85.8906 244.287 81.6002C240.914 74.4031 231.297 77.5851 220.837 66.6328C207.334 52.4931 229.795 66.6328 226.236 61.0641C222.332 54.9575 233.533 63.4428 231.937 61.0641C227.86 54.9878 233.837 58.9997 237.637 61.0641C241.437 63.1286 241.437 68.2904 244.287 68.2904Z" fill="#FECBB5"/>
<path d="M244.288 81.6C240.915 74.4029 231.297 77.5849 220.838 66.6326C218.045 63.7083 216.791 61.9935 216.526 61.0639C217.73 63.4582 220.07 64.3267 221.353 65.9175C226.83 72.7058 238.307 76.5242 243.36 77.5849L253.362 75.4636C254.043 77.2588 254.557 78.8652 255.511 79.5355C251.711 83.1482 246.298 85.8903 244.288 81.6Z" fill="#F1A089"/>
<path d="M265.814 101.726C270.179 71.2955 273.044 66.4473 280.527 62.559C280.527 92.7893 286.096 118.968 280.694 131.356C274.448 145.681 269.244 148.386 262.229 145.681C255.215 142.976 243.365 104.431 241.005 79.6294C243.84 78.9465 251.116 77.3759 257.542 76.5564C258.959 82.1902 265.814 101.726 265.814 101.726Z" fill="#EC6C47"/>
<path d="M257.542 76.5562C251.116 77.3757 243.84 78.9463 241.005 79.6292" stroke="white" stroke-width="2"/>
<path d="M250.325 246.977C256.949 219.457 269.512 176.257 274.701 157.252C285.24 157.937 313.753 154.072 325.834 154.072C322.059 178.214 286.663 246.977 288.079 250.572C293.27 263.927 312.617 316.755 317.808 330.623C306.483 326 281.474 339.869 271.092 336.787C250.8 256.657 245.132 268.55 250.325 246.977Z" fill="#0B1F83"/>
<path d="M270.45 334.268C281.993 335.152 304.978 325.606 312.476 326.489C309.705 321.186 288.187 257.034 285.253 250.572C282.906 245.403 309.379 184.125 322.909 154.132" stroke="#4B4FE2" stroke-width="2"/>
<path d="M325.834 154.072C322.742 173.847 298.434 223.559 290.519 242.873C289.525 219.014 288.546 168.342 292.589 156.526C304.518 155.56 318.339 154.072 325.834 154.072Z" fill="#09125A"/>
<path d="M300.861 284.77C307.641 303.107 314.918 322.902 317.808 330.623C315.569 329.709 312.795 329.518 309.705 329.776L300.861 284.77Z" fill="#09125A"/>
<path d="M292.516 241.242C292.516 255.2 309.974 308.165 312.333 337.244C319.411 338.784 358.573 346.01 358.573 342.889C358.573 332.146 333.094 256.637 334.981 248.939C342.059 204.807 351.787 192.047 341.407 154.072C334.644 154.072 324.884 155.714 293.932 154.072C291.102 190.507 292.516 223.794 292.516 241.242Z" fill="#0B1F83"/>
<path d="M312.01 333.914C325.353 336.095 352.668 340.455 355.187 340.455C353.883 334.798 333.507 266.673 331.551 248.939C329.594 231.206 353.394 189.711 336.604 154.243" stroke="#4B4FE2" stroke-width="2"/>
<path d="M338.069 65.0338C333.892 61.7451 320.52 58.3612 316.091 58.0186C314.191 70.8651 306.365 75.9707 297.823 75.9707C289.28 75.9707 290.893 62.9402 290.288 59.3387C279.848 61.3942 276.714 64.8571 276.629 65.5012C275.153 76.6591 271.646 133.999 273.516 161.555C281.504 172.692 314.669 161.366 342.668 157.769C342.668 132.59 343.289 69.1447 338.069 65.0338Z" fill="#EC6C47"/>
<path d="M342.668 157.769C314.669 161.366 281.505 172.692 273.516 161.555" stroke="white" stroke-width="2"/>
<path d="M316.091 58.0186C314.191 70.8651 306.365 75.9707 297.823 75.9707C289.281 75.9707 290.893 62.9402 290.288 59.3387" stroke="white" stroke-width="2"/>
<path d="M275.647 75.9706C274.038 96.877 271.992 139.102 273.516 161.555C274.313 162.666 275.361 163.554 276.629 164.248L275.647 75.9706Z" fill="#D5482A"/>
<path d="M338.069 65.0338C337.441 64.5397 336.606 64.0435 335.625 63.5557C330.3 61.9271 319.65 63.5489 319.65 83.0652C319.324 103.218 324.866 112.764 325.029 115.946C325.192 119.128 312.64 118.244 311.173 117.891C310 117.608 305.033 129.558 302.697 135.569C310.876 139.811 330.323 148.721 342.678 150.418L342.678 150.362C342.732 121.962 342.833 68.7857 338.069 65.0338Z" fill="#D5482A"/>
<path d="M268.259 105.395C268.259 104.29 269.154 103.395 270.259 103.395H285.12C286.225 103.395 287.12 104.29 287.12 105.395V119.067C287.12 124.275 282.898 128.497 277.689 128.497C272.481 128.497 268.259 124.275 268.259 119.067V105.395Z" fill="#12AAE4"/>
<path d="M278.259 128.497H283.86C277.858 128.394 268.945 123.229 268.259 103.395V118.497C268.259 124.02 272.736 128.497 278.259 128.497Z" fill="#0F8DC2"/>
<path d="M286.549 108.353C289.55 108.353 293.122 110.677 293.122 115.016C293.122 119.665 290.121 121.679 286.549 121.679" stroke="#12AAE4" stroke-width="4"/>
<path d="M305.496 114.248C306.957 116.623 310.632 120.576 312.287 122.255C310.692 125.489 306.93 132.389 304.648 134.119C303.991 132.831 303.376 132.632 297.442 130.709L297.319 130.669C291.27 128.71 295.733 126.54 293.309 126.075C287.649 124.672 293.354 120.346 289.32 119.887C284.929 119.387 292.036 114.716 290.195 115.087C286.911 115.589 286.758 112.124 287.901 111.1C289.044 110.075 296.498 108.751 299.346 109.131C302.195 109.511 303.669 111.28 305.496 114.248Z" fill="#FECBB5"/>
<path d="M297.319 130.669C291.27 128.709 295.733 126.54 293.309 126.074C291.516 125.63 290.864 124.893 290.681 124.078C291.167 125.901 294.383 125.315 294.383 126.376C294.057 129.735 295.85 129.381 297.319 129.911C298.787 130.442 303.675 132.74 304.327 131.856C304.849 131.149 308.761 124.019 310.652 120.542C311.284 121.222 311.855 121.816 312.287 122.255C310.692 125.489 306.93 132.389 304.648 134.119C303.991 132.831 303.376 132.632 297.442 130.709L297.319 130.669Z" fill="#F1A089"/>
<path d="M357.661 143.346C351.992 78.6152 346.056 63.0898 331.874 63.0893C309.177 63.0884 330.015 117.747 328.125 118.775C326.613 119.597 321.769 120.896 311.825 119.658C310.847 123.194 305.305 131.326 303.511 135.215C348.504 155.014 357.661 150.539 357.661 143.346Z" fill="#EC6C47"/>
<path d="M303.511 135.215C305.305 131.326 310.847 123.194 311.825 119.658" stroke="white" stroke-width="2"/>
<path d="M159.649 262.927V255.149V201.261C159.649 179.039 124.587 179.039 107.055 181.817C105.353 165.335 100.519 131.928 94.8001 130.15C28.4189 117.372 25.6041 153.484 27.9083 174.039C38.1208 265.149 60.0776 262.927 69.7795 262.927H159.649Z" fill="#027AC3"/>
<rect x="103.516" y="259.426" width="9.40458" height="93.0639" fill="#191353"/>
<path d="M103.516 352.49H112.92L103.516 259.426V352.49Z" fill="#2C249B"/>
<path d="M103.638 352.49H112.869C115.433 355.306 122.099 357.558 129.791 358.684C137.996 359.885 144.662 359.81 144.662 369.382H70.3069C70.3069 359.81 74.4092 359.81 86.2035 358.684C95.6388 357.783 101.758 354.179 103.638 352.49Z" fill="#2C249B"/>
<path d="M136.428 94.9825C135.108 103.928 139.038 106.761 141.168 107.059C143.806 127.993 125.641 129.946 116.228 128.306C113.549 121.224 109.015 106.344 112.312 103.481C115.61 100.618 119.595 93.6407 121.175 90.5096C123.649 91.0315 130.162 92.6566 136.428 94.9825Z" fill="#F1B09B"/>
<path d="M121.174 90.5093C123.648 91.0311 130.161 92.6563 136.427 94.9822C135.419 101.816 137.475 105.083 139.451 106.377C131.574 109.793 123.985 97.2217 121.174 90.5093Z" fill="#EC8E65"/>
<path d="M197.801 202.017C177.194 198.655 156.406 195.241 142.318 193.453L77.6521 198.887C114.488 206.935 186.352 224.373 188.001 229.738C190.063 236.445 194.397 311.791 192.954 333.253C211.303 334.594 230.535 327.399 236.514 321.363C228.971 295.788 222.332 207.164 197.801 202.017Z" fill="#12AAE4"/>
<path d="M235.536 318.181C226.973 324.714 204.919 332.781 194.457 329.848C192.987 329.848 198.818 268.156 192.646 227.042C192.646 224.237 125.736 206.283 92.2813 197.657" stroke="white" stroke-width="3"/>
<path d="M188.001 229.738C190.063 236.445 196.715 312.275 195.272 333.737C200.325 333.737 201.14 333.737 205.705 332.853C202.192 302.428 203.259 248.076 199.553 226.085C195.846 204.094 167.224 205.05 116.087 195.656L77.6524 198.886C114.488 206.935 186.352 224.372 188.001 229.738Z" fill="#0F8DC2"/>
<path d="M145.06 61.5581C147.056 76.7569 147.167 105.829 129.519 96.6262C101.911 82.2301 120.273 47.0552 145.06 61.5581Z" fill="#F1B09B"/>
<path d="M145.938 73.209C145.856 69.0212 145.505 64.9452 145.06 61.5581C122.622 48.4301 105.45 76.0074 122.873 92.0318C123.735 85.9792 119.986 84.742 117.99 81.5809C115.994 78.4198 118.476 74.2313 120.311 75.7767C122.146 77.322 120.659 83.343 122.341 82.7688C128.08 81.3107 125.572 72.1427 129.458 73.3221C137.739 76.3757 143.895 74.519 145.938 73.209Z" fill="#EC8E65"/>
<path d="M85.5454 260.326C54.7105 250.319 63.6475 217.144 71.8235 201.807C75.8084 200.616 89.2143 198.233 112.134 198.233C184.069 204.934 194.092 212.975 196.978 230.396C199.864 247.818 201.88 333.863 201.88 345.254C190.353 348.725 163.732 337.213 152.986 337.213C151.337 322.561 156.101 275.141 159.467 256.975C138.375 260.772 103.007 263.375 85.5454 260.326Z" fill="#12AAE4"/>
<path d="M201.629 340.986C189.788 344.014 166.907 333.17 156.474 334.445C153.992 334.748 160.463 267.997 162.961 254.77C163.623 251.264 76.2621 269.431 74.9396 203.935" stroke="white" stroke-width="3"/>
<path d="M171.19 239.631C168.369 248.683 162.2 254.965 159.468 256.975C159.273 258.023 159.083 259.142 158.898 260.326C162.995 256.03 171.19 245.878 171.19 239.631Z" fill="#0F8DC2"/>
<path d="M72.0009 201.864C75.9858 200.672 89.2143 198.233 112.134 198.233C114.238 198.429 116.29 198.626 118.289 198.825C101.684 201.807 73.0295 211.106 69.3511 206.326C70.0619 204.696 71.2689 203.237 72.0009 201.864Z" fill="#D79B16"/>
<path d="M195.54 169.466C191.15 172.091 186.14 172.475 184.068 172.121V182.742H211.313C215.137 172.121 201.753 165.75 195.54 169.466Z" fill="#F9DB97"/>
<path d="M165.829 161.2C161.868 132.66 154.497 115.968 147.827 110.394C143.77 132.17 144.827 172.067 145.8 181.684C145.982 183.488 153.703 182.12 196.105 182.12V162.315C185.585 160.308 166.127 163.351 165.829 161.2Z" fill="#F4BD34"/>
<path d="M147.892 110.48C146.249 108.513 142.563 107.419 140.92 107.047C140.235 113.827 133.864 124.375 127.62 123.288C121.376 122.201 113.409 111.882 112.412 103.381C107.976 102.845 99.2102 105.487 96.3345 106.903C96.3345 106.903 78.7659 177.007 71.48 202.593C78.2122 210.42 120.294 192.81 147.892 194.322C145.769 155.013 151.353 136.209 147.892 110.48Z" fill="#F4BD34"/>
<path d="M142.831 107.577C141.606 114.204 137.688 127.511 127.621 125.691C116.087 123.606 112.12 112.029 110.503 103.323" stroke="white"/>
<path d="M146.211 157.881C146.211 155.714 147.976 132.331 148.858 120.911C149.897 140.888 146.412 158.774 147.676 189.752C146.943 188.796 146.211 186.716 146.211 185.291V157.881Z" fill="#D89B0E"/>
<path d="M104.919 139.237C113.148 118.839 102.625 109.182 96.3351 106.903C96.3351 106.903 85.3752 150.636 77.1785 181.625H142.096C142.243 180.829 142.537 179.012 142.537 178.119C141.802 165.69 127.255 162.981 123.728 165.371C120.201 167.761 114.323 169.355 114.323 168.877C114.323 168.399 115.646 164.415 114.323 163.14C111.531 160.75 95.2203 161.546 96.3351 159.156C97.4499 156.766 98.0123 155.81 104.919 139.237Z" fill="#D89B0E"/>
<g filter="url(#filter0_d_179_831)">
<path d="M122.384 166.786C117.162 169.878 111.202 170.33 108.739 169.913V182.422H141.145C145.693 169.913 129.775 162.41 122.384 166.786Z" fill="#F1B09B"/>
</g>
<path d="M122.384 166.786C117.162 169.878 111.202 170.33 108.739 169.913V182.422H112.118C112.853 178.969 114.323 171.968 114.323 171.586C114.323 171.108 118.542 170.887 122.384 168.239C126.225 165.592 143.134 165.052 141.145 182.422C145.693 169.913 129.775 162.41 122.384 166.786Z" fill="#EC8E65"/>
<path d="M58.5498 178.696C62.0188 140.59 88.5526 109.89 96.3966 106.887C123.653 119.575 86.8389 160.335 91.3817 161.893C95.0159 163.14 108.039 163.233 114.096 166.126C113.545 168.426 112.284 175.121 110.797 182.422C63.1545 182.422 58.5498 184.483 58.5498 178.696Z" fill="#F4BD34"/>
<path d="M111.483 165.151L108.386 182.424" stroke="white"/>
<path d="M150.612 63.9026C149.65 51.3893 140.594 51.4326 135.808 53.2252C133.288 49.8167 126.66 47.3692 123.214 48.8997C115.069 52.5169 114.291 60.1809 114.24 63.4787C104.962 73.2005 113.795 83.182 116.96 85.5696C117.325 86.1853 118.153 90.994 119.634 93.4951C121.427 91.0202 122.276 90.0893 122.205 88.6165C122.117 86.7756 119.901 86.4172 117.28 81.9922C114.66 77.5671 118.398 74.1483 120.666 75.015C122.933 75.8816 121.295 83.2719 123.07 82.0364C127.695 77.9998 123.962 70.0022 131.118 72.3552C141.386 75.7312 151.246 72.1559 150.612 63.9026Z" fill="#1A1454"/>
<path d="M131.118 72.3555C141.386 75.7315 151.246 72.1562 150.611 63.9029C150.257 59.2897 148.802 56.3831 146.867 54.6416C151.798 67.8425 138.422 71.9512 131.118 72.3555Z" fill="#030215"/>
<path d="M158.555 262.897L159.29 257.798C91.3452 257.798 94.7717 252.14 91.7045 241.711C82.509 210.446 73.8264 198.722 52.3681 195.372C40.9248 193.585 32.5203 190.161 29.7485 188.672C40.5833 264.907 60.5969 262.927 69.7375 262.927C77.5026 262.927 102.797 262.897 158.555 262.897Z" fill="#1C43AD"/>
<path d="M163.618 178.597H120.122V182.616H163.618V178.597Z" fill="#1C43AE"/>
<path d="M163.553 181.147H120.057V182.74H163.553V181.147Z" fill="#08299A"/>
<path d="M163.553 178.597H120.057V179.872H163.553V178.597Z" fill="#0F2E9A"/>
<path d="M231.638 132.398C232.183 129.334 229.827 126.522 226.715 126.522H168.968C166.544 126.522 164.47 128.261 164.045 130.647L155.846 176.74C155.301 179.804 157.657 182.616 160.769 182.616H218.516C220.94 182.616 223.014 180.878 223.439 178.491L231.638 132.398Z" fill="#1C43AE"/>
<path d="M222.089 182.616H155.678C155.22 182.616 154.874 182.203 154.954 181.753C155.017 181.402 155.321 181.147 155.678 181.147H222.089C222.546 181.147 222.893 181.56 222.813 182.01C222.75 182.36 222.445 182.616 222.089 182.616Z" fill="#08299A"/>
<path d="M155.176 179.872L164.319 129.076C164.585 127.598 165.871 126.523 167.373 126.523L157.674 179.872H155.176Z" fill="#0F2E9A"/>
<ellipse rx="2.50494" ry="4.61053" transform="matrix(-0.981601 -0.190944 -0.163189 0.986595 197.319 152.545)" fill="#0F2E9A"/>
<path d="M117.558 182.422C118.659 178.246 122.951 170.269 131.315 171.772C139.679 173.276 143.054 179.499 143.421 182.422L117.558 182.422Z" fill="#1C43AE"/>
<path d="M117.558 182.422C118.659 178.246 122.951 170.269 131.315 171.772C133.535 172.171 135.404 172.903 136.958 173.817C132.01 172.33 121.849 171.969 120.791 182.422L117.558 182.422Z" fill="#0F2E9A"/>
<rect width="273.861" height="7.07115" rx="3.53557" transform="matrix(-1 0 0 1 303.674 182.592)" fill="#312E63"/>
<path d="M271.501 186.104H263.399L295.958 369.581H298.129L271.501 186.104Z" fill="#312E63"/>
<path d="M62.8035 185.928H70.9054L38.346 369.405H36.1753L62.8035 185.928Z" fill="#312E63"/>
<path d="M250.478 167.248C252.787 163.83 257.093 155.021 255.842 147.138C254.837 140.807 254.629 138.116 254.664 137.232C254.685 137.109 254.705 136.992 254.724 136.881C254.695 136.908 254.672 137.016 254.664 137.232C254.201 139.937 253.383 145.468 253.383 148.545C253.383 152.568 249.36 159.405 248.243 167.248H250.478Z" fill="#0D8BC9"/>
<path d="M257.183 160.813C255.038 162.583 253.607 165.841 253.16 167.248H251.149C251.372 165.036 253.831 159.807 256.066 158.601C257.854 157.635 259.791 154.847 260.536 153.573C260.313 155.249 259.329 159.043 257.183 160.813Z" fill="#0D8BC9"/>
<path d="M252.042 146.736C253.115 152.045 251.595 162.757 250.701 167.45H248.466C246.902 160.813 248.913 152.166 248.913 148.345C248.913 145.288 250.403 140.367 251.148 138.289C250.999 138.893 250.969 141.427 252.042 146.736Z" fill="#0379C3"/>
<path d="M256.959 156.59C253.74 159.647 251.744 164.969 251.148 167.248H249.136C248.689 164.232 251.595 157.394 254.724 154.981C257.227 153.05 259.939 148.009 260.982 145.73C260.982 148.076 260.177 153.533 256.959 156.59Z" fill="#0379C3"/>
<path d="M246.901 157.193C249.404 160.089 249.583 164.567 249.36 166.444H248.466C248.019 164.433 245.114 160.009 243.102 156.791C241.091 153.573 241.314 147.339 241.314 143.317C241.314 146.535 243.772 153.573 246.901 157.193Z" fill="#0379C3"/>
<path d="M250.476 167.048C251.296 164.031 252.309 157.033 249.806 153.171C246.7 148.381 244.696 140.816 244.885 138.738C244.886 138.722 244.888 138.707 244.889 138.692C244.888 138.707 244.886 138.722 244.885 138.738C244.441 143.154 244.226 148.567 246.454 154.78C248.242 159.768 248.689 165.037 248.689 167.048H250.476Z" fill="#0D8BC9"/>
<path d="M241.761 158.802C244.086 160.732 246.306 164.835 247.125 166.645H249.137C249.36 166.041 245.784 159.204 243.549 157.193C241.314 155.182 239.079 149.953 238.185 147.137C237.738 149.35 238.371 155.986 241.761 158.802Z" fill="#0D8BC9"/>
<path d="M240.867 165.841H259.642L256.736 182.734H243.996L240.867 165.841Z" fill="#F4BD34"/>
<path d="M259.278 167.956H243.997L246.582 182.734M259.004 169.549H245.847L248.052 182.734" stroke="#D79B16"/>
<path d="M385 369.506H4.05312e-05" stroke="#191353"/>
<defs>
<filter id="filter0_d_179_831" x="104.739" y="165.53" width="41.21" height="24.8917" filterUnits="userSpaceOnUse" color-interpolation-filters="sRGB">
<feFlood flood-opacity="0" result="BackgroundImageFix"/>
<feColorMatrix in="SourceAlpha" type="matrix" values="0 0 0 0 0 0 0 0 0 0 0 0 0 0 0 0 0 0 127 0" result="hardAlpha"/>
<feOffset dy="4"/>
<feGaussianBlur stdDeviation="2"/>
<feComposite in2="hardAlpha" operator="out"/>
<feColorMatrix type="matrix" values="0 0 0 0 0 0 0 0 0 0 0 0 0 0 0 0 0 0 0.25 0"/>
<feBlend mode="normal" in2="BackgroundImageFix" result="effect1_dropShadow_179_831"/>
<feBlend mode="normal" in="SourceGraphic" in2="effect1_dropShadow_179_831" result="shape"/>
</filter>
</defs>
</svg>
